<svg xmlns="http://www.w3.org/2000/svg" xmlns:xlink="http://www.w3.org/1999/xlink" viewBox="0,0,256,256" width="40px" height="40px" fill-rule="nonzero"><g fill="none" fill-rule="nonzero" stroke="none" stroke-width="1" stroke-linecap="butt" stroke-linejoin="miter" stroke-miterlimit="10" stroke-dasharray="" stroke-dashoffset="0" font-family="none" font-weight="none" font-size="none" text-anchor="none" style="mix-blend-mode: normal"><g transform="scale(6.4,6.4)"><path d="M20,1c-10.49341,0 -19,8.50659 -19,19c0,10.49341 8.50659,19 19,19c10.49341,0 19,-8.50659 19,-19c0,-10.49341 -8.50659,-19 -19,-19z" fill="#4c184e"></path><path d="M38.892,22.007c0.003,-0.027 0.008,-0.053 0.011,-0.08c-0.003,0.026 -0.008,0.053 -0.011,0.08zM1.097,21.92c0.004,0.036 0.01,0.072 0.014,0.108c-0.003,-0.036 -0.011,-0.072 -0.014,-0.108zM22.572,25.036h4.917l0.772,-4.995h-5.69v-2.73c0,-2.075 0.678,-3.915 2.619,-3.915h3.119v-4.36c-0.547,-0.073 -1.705,-0.236 -3.895,-0.236c-4.573,0 -7.254,2.415 -7.254,7.917v3.323h-4.701v4.995h4.701v13.402c0.929,0.14 1.872,0.235 2.84,0.235c0.875,0 1.729,-0.08 2.572,-0.194z" fill="#ebebeb"></path><g fill="#ebebeb"><path d="M20,2c9.925,0 18,8.075 18,18c0,9.925 -8.075,18 -18,18c-9.925,0 -18,-8.075 -18,-18c0,-9.925 8.075,-18 18,-18M20,1c-10.493,0 -19,8.507 -19,19c0,10.493 8.507,19 19,19c10.493,0 19,-8.507 19,-19c0,-10.493 -8.507,-19 -19,-19z"></path></g></g></g></svg>