<svg xmlns="http://www.w3.org/2000/svg" xmlns:xlink="http://www.w3.org/1999/xlink" viewBox="0,0,256,256" width="40px" height="40px" fill-rule="nonzero"><g fill="none" fill-rule="nonzero" stroke="none" stroke-width="1" stroke-linecap="butt" stroke-linejoin="miter" stroke-miterlimit="10" stroke-dasharray="" stroke-dashoffset="0" font-family="none" font-weight="none" font-size="none" text-anchor="none" style="mix-blend-mode: normal"><g transform="scale(6.4,6.4)"><path d="M4,34.5c-1.378,0 -2.5,-1.122 -2.5,-2.5v-23c0,-1.378 1.122,-2.5 2.5,-2.5h32c1.378,0 2.5,1.122 2.5,2.5v23c0,1.378 -1.122,2.5 -2.5,2.5z" fill-opacity="0.21176" fill="#4c184e"></path><path d="M36,7c1.103,0 2,0.897 2,2v23c0,1.103 -0.897,2 -2,2h-32c-1.103,0 -2,-0.897 -2,-2v-23c0,-1.103 0.897,-2 2,-2h32M36,6h-32c-1.657,0 -3,1.343 -3,3v23c0,1.657 1.343,3 3,3h32c1.657,0 3,-1.343 3,-3v-23c0,-1.657 -1.343,-3 -3,-3z" fill="#4c184e"></path><path d="M38,32v-23c0,-1.105 -0.895,-2 -2,-2h-32c-1.105,0 -2,0.895 -2,2l18.772,25h15.228c1.105,0 2,-0.895 2,-2z" fill-opacity="0.56078" fill="#4c184e"></path><path d="M38,32v-21.285l-33,23.285h31c0.748,0 2,-0.795 2,-2z" fill="#ebebeb"></path><path d="M20.772,34h15.228c1.105,0 2,-0.895 2,-2v-21.285l-22.69,16.01z" fill-opacity="0.21176" fill="#4c184e"></path><path d="M4,34.5c-1.378,0 -2.5,-1.122 -2.5,-2.5v-22.5h3v25z" fill-opacity="0.81176" fill="#4c184e"></path><path d="M4,10v24c-1.103,0 -2,-0.897 -2,-2v-22h2M5,9h-4v1v22c0,1.657 1.343,3 3,3h1v-26z" fill="#4c184e"></path><path d="M35.5,34.5v-25h3v22.5c0,1.378 -1.122,2.5 -2.5,2.5z" fill-opacity="0.81176" fill="#4c184e"></path><path d="M38,10v22c0,1.103 -0.897,2 -2,2v-24h2M39,9h-4v26h1c1.657,0 3,-1.343 3,-3v-23z" fill="#4c184e"></path><path d="M2.6,10.564c-0.288,-0.201 -1.1,-0.91 -1.1,-1.542c0,-1.4 1.122,-2.522 2.5,-2.522h32c1.378,0 2.5,1.122 2.5,2.5c0,0.654 -0.812,1.364 -1.097,1.563l-17.403,12.318z" fill="#ebebeb"></path><path d="M36,7c1.103,0 2,0.897 2,2.024c0,0.326 -0.523,0.876 -0.889,1.134l-17.111,12.111l-17.116,-12.116c-0.361,-0.255 -0.884,-0.804 -0.884,-1.153c0,-1.103 0.897,-2 2,-2h16h16M36,6h-16h-16c-1.657,0 -3,1.343 -3,3v0.023c0,1.042 1.311,1.95 1.311,1.95l17.689,12.521l17.689,-12.52c0,0 1.311,-0.909 1.311,-1.95v-0.024c0,-1.657 -1.343,-3 -3,-3z" fill="#4c184e"></path><g><path d="M2.6,10.564c-0.109,-0.081 -0.227,-0.173 -0.364,-0.3c-0.261,-0.243 -0.465,-0.497 -0.589,-0.731c-0.098,-0.184 -0.147,-0.355 -0.147,-0.511c0,-0.986 0.569,-1.864 1.438,-2.273l17.062,12.078l17.063,-12.077c0.869,0.409 1.437,1.285 1.437,2.25c0,0.101 -0.012,0.183 -0.037,0.269c-0.164,0.568 -0.821,1.127 -1.06,1.295l-17.403,12.317z" fill-opacity="0.81176" fill="#4c184e"></path><path d="M2.905,7.339l16.517,11.691l0.578,0.409l0.578,-0.409l16.517,-11.69c0.555,0.364 0.905,0.989 0.905,1.684c0,0.03 -0.006,0.066 -0.017,0.106c-0.113,0.391 -0.633,0.86 -0.871,1.028l-17.112,12.111l-17.145,-12.137c-0.055,-0.042 -0.158,-0.122 -0.277,-0.233c-0.221,-0.206 -0.39,-0.414 -0.49,-0.601c-0.057,-0.107 -0.088,-0.205 -0.088,-0.298c0,-0.676 0.35,-1.297 0.905,-1.661M3.003,6.183c-1.164,0.412 -2.003,1.512 -2.003,2.817v0.023c0,0.26 0.082,0.513 0.205,0.744c0.184,0.347 0.461,0.649 0.691,0.864c0.154,0.143 0.287,0.248 0.358,0.301c0.036,0.027 0.056,0.041 0.056,0.041l17.69,12.521l17.689,-12.52c0,0 1.004,-0.696 1.255,-1.568c0.035,-0.124 0.056,-0.252 0.056,-0.382v-0.024c0,-1.305 -0.838,-2.404 -2.002,-2.817l-16.998,12.031l-16.997,-12.031z" fill="#4c184e"></path></g></g></g></svg>