<svg xmlns="http://www.w3.org/2000/svg" xmlns:xlink="http://www.w3.org/1999/xlink" viewBox="0,0,256,256" width="40px" height="40px" fill-rule="nonzero"><g fill="none" fill-rule="nonzero" stroke="none" stroke-width="none" stroke-linecap="butt" stroke-linejoin="miter" stroke-miterlimit="10" stroke-dasharray="" stroke-dashoffset="0" font-family="none" font-weight="none" font-size="none" text-anchor="none" style="mix-blend-mode: normal"><g transform="scale(6.4,6.4)"><path d="M30.5,38.5c4.418,0 8,-3.582 8,-8v-21c0,-4.418 -3.582,-8 -8,-8h-21c-4.418,0 -8,3.582 -8,8v21c0,4.418 3.582,8 8,8z" fill-opacity="0.81176" fill="#4c184e" stroke="none" stroke-width="1"></path><path d="M3.4,4.331c-1.183,1.395 -1.9,3.197 -1.9,5.169v21c0,4.418 3.582,8 8,8h21c4.418,0 8,-3.582 8,-8v-21c0,-0.503 -0.052,-0.992 -0.141,-1.469c-6.224,-3.811 -13.527,-6.031 -21.359,-6.031c-4.771,0 -9.343,0.832 -13.6,2.331z" fill-opacity="0.81176" fill="#4c184e" stroke="none" stroke-width="1"></path><path d="M1.505,9.404c-0.001,0.033 -0.005,0.064 -0.005,0.096v21c0,4.418 3.582,8 8,8h21c4.418,0 8,-3.582 8,-8v-17.603c-6.061,-4.337 -13.479,-6.897 -21.5,-6.897c-5.535,0 -10.78,1.226 -15.495,3.404z" fill-opacity="0.81176" fill="#4c184e" stroke="none" stroke-width="1"></path><path d="M1.5,13.88v16.62c0,4.418 3.582,8 8,8h21c4.418,0 8,-3.582 8,-8v-12.519c-5.776,-4.968 -13.283,-7.981 -21.5,-7.981c-5.606,0 -10.876,1.414 -15.5,3.88z" fill-opacity="0.58039" fill="#4c184e" stroke="none" stroke-width="1"></path><path d="M17,14c-5.705,0 -11.014,1.664 -15.5,4.509v11.991c0,4.418 3.582,8 8,8h21c4.418,0 8,-3.582 8,-8v-6.935c-5.306,-5.867 -12.966,-9.565 -21.5,-9.565z" fill-opacity="0.58039" fill="#4c184e" stroke="none" stroke-width="1"></path><path d="M17,18c-5.861,0 -11.237,2.033 -15.5,5.411v7.089c0,4.418 3.582,8 8,8h21c4.418,0 8,-3.582 8,-8v-0.238c-4.357,-7.337 -12.348,-12.262 -21.5,-12.262z" fill-opacity="0.58039" fill="#4c184e" stroke="none" stroke-width="1"></path><path d="M17,22c-6.145,0 -11.66,2.651 -15.5,6.859v1.641c0,4.418 3.582,8 8,8h21c2.465,0 4.668,-1.117 6.136,-2.87c-2.988,-7.956 -10.637,-13.63 -19.636,-13.63z" fill-opacity="0.58039" fill="#4c184e" stroke="none" stroke-width="1"></path><path d="M30.5,38.5c0.957,0 1.87,-0.177 2.721,-0.485c-2.134,-6.95 -8.572,-12.015 -16.221,-12.015c-6.186,0 -11.592,3.309 -14.566,8.248c1.344,2.529 4.003,4.252 7.066,4.252z" fill-opacity="0.18824" fill="#b279a7" stroke="none" stroke-width="1"></path><path d="M17,30c-5.137,0 -9.573,2.984 -11.684,7.309c1.219,0.751 2.648,1.191 4.184,1.191h19.683c-1.833,-4.958 -6.588,-8.5 -12.183,-8.5z" fill-opacity="0.18824" fill="#b279a7" stroke="none" stroke-width="1"></path><path d="M17,34c-3.319,0 -6.193,1.813 -7.753,4.487c0.085,0.003 0.168,0.013 0.253,0.013h15.26c-1.557,-2.682 -4.436,-4.5 -7.76,-4.5z" fill-opacity="0.18824" fill="#b279a7" stroke="none" stroke-width="1"></path><path d="M31,2c3.86,0 7,3.14 7,7v22c0,3.86 -3.14,7 -7,7h-22c-3.86,0 -7,-3.14 -7,-7v-22c0,-3.86 3.14,-7 7,-7h22M31,1h-22c-4.418,0 -8,3.582 -8,8v22c0,4.418 3.582,8 8,8h22c4.418,0 8,-3.582 8,-8v-22c0,-4.418 -3.582,-8 -8,-8z" fill="#4c184e" stroke="none" stroke-width="1"></path><path d="M27.5,11c-0.82843,0 -1.5,0.67157 -1.5,1.5c0,0.82843 0.67157,1.5 1.5,1.5c0.82843,0 1.5,-0.67157 1.5,-1.5c0,-0.82843 -0.67157,-1.5 -1.5,-1.5z" fill="#ffffff" stroke="none" stroke-width="1"></path><path d="M20,14c-3.31371,0 -6,2.68629 -6,6c0,3.31371 2.68629,6 6,6c3.31371,0 6,-2.68629 6,-6c0,-3.31371 -2.68629,-6 -6,-6z" fill="none" stroke="#ffffff" stroke-width="2"></path><path d="M33,14.5c0,-4.142 -3.358,-7.5 -7.5,-7.5c-2.176,0 -8.824,0 -11,0c-4.142,0 -7.5,3.358 -7.5,7.5c0,2.176 0,8.824 0,11c0,4.142 3.358,7.5 7.5,7.5c2.176,0 8.824,0 11,0c4.142,0 7.5,-3.358 7.5,-7.5c0,-2.176 0,-8.824 0,-11z" fill="none" stroke="#ffffff" stroke-width="2"></path></g></g></svg>