<?xml version="1.0" standalone="no"?>
<!DOCTYPE svg PUBLIC "-//W3C//DTD SVG 20010904//EN"
 "http://www.w3.org/TR/2001/REC-SVG-20010904/DTD/svg10.dtd">
<svg version="1.0" xmlns="http://www.w3.org/2000/svg"
 width="500.000000pt" height="500.000000pt" viewBox="0 0 500.000000 500.000000"
 preserveAspectRatio="xMidYMid meet">

<g transform="translate(0.000000,500.000000) scale(0.100000,-0.100000)"
fill="#000000" stroke="none">
<path d="M2170 3772 c-26 -9 -94 -59 -129 -93 -76 -78 -111 -175 -111 -314 0
-88 -4 -97 -84 -199 -25 -33 -46 -67 -46 -77 0 -21 26 -49 44 -49 8 0 19 -7
26 -15 10 -12 9 -20 -4 -39 -18 -28 -16 -97 4 -121 9 -11 11 -32 6 -71 -4 -32
-2 -63 4 -74 12 -23 67 -40 130 -40 90 -1 179 -69 216 -167 l17 -43 278 0 279
0 0 100 0 100 38 19 c48 25 96 78 112 125 8 26 19 38 44 46 67 22 128 114 113
172 -4 13 7 32 33 59 21 22 44 56 51 76 17 51 7 147 -18 182 -19 24 -20 34
-12 70 23 102 -52 209 -163 235 -28 6 -28 6 -28 -49 0 -36 -7 -70 -20 -96 -22
-43 -20 -59 10 -59 22 0 42 34 59 97 l12 43 26 -17 c31 -20 53 -69 53 -118 0
-39 -2 -40 -32 -24 -16 9 -24 7 -37 -6 -15 -15 -14 -18 8 -33 83 -59 113 -122
92 -191 -15 -51 -62 -98 -110 -111 -58 -15 -65 -60 -10 -60 25 0 29 -4 29 -26
0 -29 -66 -103 -79 -88 -4 5 -13 28 -20 52 -7 24 -25 57 -41 75 -28 31 -30 31
-47 14 -15 -14 -15 -20 -5 -35 26 -36 52 -98 52 -127 0 -42 -32 -107 -65 -133
-43 -34 -100 -48 -145 -35 -41 11 -70 2 -70 -22 0 -18 24 -30 73 -39 l38 -7
-3 -67 -3 -67 -80 0 -80 0 -3 213 -2 212 44 0 c33 0 52 7 75 26 37 31 51 88
28 111 -23 23 -47 9 -47 -26 0 -22 -8 -35 -25 -47 -23 -15 -27 -15 -50 0 l-25
16 0 189 c0 202 3 216 51 209 16 -2 25 -13 31 -36 7 -27 13 -33 31 -30 35 5
34 49 -1 89 -25 28 -37 34 -71 34 l-41 0 0 78 c0 46 6 92 15 114 19 45 20 43
-14 43 -18 0 -32 -7 -37 -17 -5 -10 -11 -279 -14 -598 l-5 -580 -35 0 -35 0
-3 608 c-1 334 -5 607 -10 607 -6 0 -95 13 -222 34 -14 2 -32 1 -40 -2z"/>
<path d="M2664 3665 c-18 -43 -18 -59 1 -75 20 -17 33 -5 45 40 8 31 17 41 38
47 l27 7 -25 7 c-54 15 -70 11 -86 -26z"/>
<path d="M2816 3672 c7 -4 19 -24 27 -44 17 -41 28 -46 46 -24 17 20 3 63 -22
70 -31 8 -64 7 -51 -2z"/>
<path d="M2737 3523 c-4 -3 -7 -14 -7 -24 0 -18 19 -29 50 -29 24 0 60 -46 60
-77 0 -16 -13 -37 -36 -59 -55 -49 -29 -88 32 -48 80 53 67 193 -21 230 -37
15 -68 18 -78 7z"/>
<path d="M2994 3325 c-3 -8 6 -29 20 -46 24 -28 25 -34 13 -53 -8 -11 -25 -23
-38 -26 -15 -4 -25 -14 -27 -28 -3 -19 1 -22 33 -22 50 0 95 44 95 93 0 62
-79 128 -96 82z"/>
<path d="M2647 3294 c-14 -14 -7 -70 13 -102 56 -92 197 -97 256 -8 36 56 -13
76 -56 24 -53 -63 -147 -34 -167 50 -8 35 -30 51 -46 36z"/>
<path d="M2782 2978 c-7 -7 -9 -27 -5 -54 5 -40 3 -44 -21 -55 -21 -10 -34
-10 -62 0 -41 15 -60 5 -50 -27 16 -48 119 -54 164 -9 31 32 40 98 18 132 -18
28 -27 30 -44 13z"/>
<path d="M2240 2385 l0 -25 280 0 280 0 0 25 0 25 -280 0 -280 0 0 -25z"/>
<path d="M2330 2295 c0 -23 3 -25 53 -25 47 0 54 -3 69 -30 13 -22 24 -30 45
-30 34 0 46 8 62 38 10 20 19 22 81 22 68 0 70 1 70 25 l0 25 -190 0 -190 0 0
-25z"/>
<path d="M3322 2124 c-42 -29 -23 -84 29 -84 33 0 59 23 59 54 0 45 -45 60
-88 30z"/>
<path d="M2953 2103 c-26 -5 -31 -31 -8 -39 13 -5 15 -34 15 -175 0 -192 -4
-182 90 -194 105 -12 190 58 190 157 0 96 -52 145 -142 135 l-48 -6 0 64 0 65
-37 -1 c-21 -1 -48 -4 -60 -6z m172 -178 c45 -44 30 -178 -22 -191 -43 -11
-53 10 -53 111 0 50 3 95 7 98 14 14 45 6 68 -18z"/>
<path d="M3520 2017 c-8 -17 -25 -36 -37 -42 -28 -12 -30 -35 -3 -35 19 0 20
-7 20 -103 0 -128 7 -141 78 -139 56 1 95 17 89 35 -2 7 -18 12 -35 13 -18 1
-36 4 -40 8 -4 4 -9 48 -10 97 l-4 89 46 0 c39 0 46 3 46 20 0 17 -7 20 -45
20 -45 0 -45 0 -45 35 0 30 -3 35 -22 35 -16 0 -28 -11 -38 -33z"/>
<path d="M1378 1977 c-41 -11 -50 -35 -23 -57 11 -9 15 -34 15 -95 0 -64 -3
-84 -15 -89 -8 -3 -15 -12 -15 -21 0 -12 14 -15 75 -15 68 0 75 2 75 20 0 11
-7 20 -15 20 -13 0 -15 15 -13 93 l3 92 34 3 c20 2 37 -2 42 -10 5 -7 9 -50 9
-94 0 -73 -2 -82 -20 -87 -11 -3 -20 -12 -20 -21 0 -13 13 -16 80 -16 73 0 80
2 80 20 0 11 -7 20 -15 20 -12 0 -15 16 -15 84 0 92 -13 141 -40 156 -30 16
-83 11 -117 -10 -33 -20 -33 -20 -33 0 0 22 -13 23 -72 7z"/>
<path d="M1782 1970 c-46 -28 -72 -76 -72 -133 0 -92 50 -141 145 -141 76 0
135 30 110 56 -3 3 -24 1 -45 -4 -49 -13 -92 3 -109 38 -23 51 -18 54 79 54
l90 0 0 35 c0 47 -19 84 -51 101 -40 20 -108 18 -147 -6z m104 -38 c21 -42 7
-62 -42 -62 -48 0 -55 11 -33 53 23 44 56 47 75 9z"/>
<path d="M2085 1985 c-5 -2 -22 -6 -37 -9 -28 -6 -37 -32 -19 -51 5 -6 11 -49
13 -96 2 -67 7 -92 22 -107 28 -32 70 -37 116 -14 31 15 40 16 40 6 0 -18 38
-26 74 -16 32 9 48 32 22 32 -14 0 -16 18 -16 130 0 145 4 139 -76 119 -45
-12 -61 -40 -29 -53 12 -4 15 -24 15 -90 0 -83 -1 -86 -25 -92 -46 -11 -54 8
-57 129 -3 113 -7 124 -43 112z"/>
<path d="M2400 1976 c-41 -15 -50 -40 -21 -56 19 -9 21 -20 21 -95 0 -69 -3
-85 -15 -85 -8 0 -15 -9 -15 -20 0 -18 7 -20 85 -20 78 0 85 2 85 20 0 15 -7
20 -25 20 -25 0 -25 1 -25 91 l0 91 40 -4 40 -4 0 38 c0 33 -3 38 -24 38 -13
0 -35 -9 -50 -21 l-26 -20 0 20 c0 24 -18 26 -70 7z"/>
<path d="M2681 1973 c-47 -24 -71 -67 -71 -131 0 -95 47 -144 139 -145 93 -1
151 57 151 151 0 29 -7 67 -16 83 -28 55 -132 77 -203 42z m119 -59 c13 -32
13 -115 1 -147 -14 -36 -48 -44 -75 -18 -18 18 -21 33 -21 97 0 67 3 78 23 95
29 23 58 12 72 -27z"/>
<path d="M3323 1973 c-45 -15 -53 -32 -28 -53 11 -9 15 -34 15 -95 0 -64 -3
-84 -15 -89 -8 -3 -15 -12 -15 -21 0 -12 15 -15 80 -15 67 0 80 3 80 16 0 9
-9 18 -20 21 -19 5 -20 14 -20 129 0 140 3 136 -77 107z"/>
<path d="M1419 1386 c-39 -19 -31 -55 19 -89 40 -27 42 -31 28 -45 -13 -14
-21 -14 -46 -5 -34 13 -51 0 -21 -16 28 -16 77 -13 91 3 21 26 7 60 -32 81
-23 12 -38 27 -38 39 0 16 5 18 36 13 23 -4 34 -2 32 5 -7 19 -44 27 -69 14z"/>
<path d="M1240 1305 l0 -85 50 0 c28 0 50 5 50 10 0 6 -16 10 -35 10 -32 0
-35 2 -35 30 0 27 3 30 30 30 17 0 30 5 30 10 0 6 -13 10 -30 10 -25 0 -30 4
-30 25 0 22 4 25 35 25 19 0 35 5 35 10 0 6 -22 10 -50 10 l-50 0 0 -85z"/>
<path d="M1540 1380 c0 -5 11 -10 25 -10 24 0 25 -2 25 -75 0 -43 4 -75 10
-75 6 0 10 32 10 75 0 73 1 75 25 75 14 0 25 5 25 10 0 6 -27 10 -60 10 -33 0
-60 -4 -60 -10z"/>
<path d="M1710 1305 c0 -50 4 -85 10 -85 6 0 10 35 10 85 0 50 -4 85 -10 85
-6 0 -10 -35 -10 -85z"/>
<path d="M1790 1305 c0 -50 4 -85 10 -85 6 0 10 30 11 68 l1 67 21 -57 c12
-32 27 -58 33 -58 6 0 19 26 30 58 l19 57 3 -67 c4 -98 22 -84 22 18 0 74 -2
85 -16 82 -10 -2 -26 -26 -37 -57 l-21 -55 -14 35 c-8 19 -18 44 -23 57 -5 12
-15 22 -24 22 -12 0 -15 -15 -15 -85z"/>
<path d="M2000 1327 c0 -82 18 -109 68 -105 46 4 62 32 62 111 0 43 -3 57 -15
57 -11 0 -15 -16 -17 -66 -3 -70 -18 -94 -52 -81 -13 5 -16 21 -16 77 0 56 -3
70 -15 70 -12 0 -15 -14 -15 -63z"/>
<path d="M2190 1305 l0 -85 50 0 c28 0 50 5 50 10 0 6 -18 10 -40 10 l-40 0 0
75 c0 43 -4 75 -10 75 -6 0 -10 -35 -10 -85z"/>
<path d="M2336 1312 c-14 -42 -26 -80 -26 -85 0 -17 21 -5 30 18 7 19 17 25
40 25 23 0 31 -5 36 -25 3 -14 13 -25 21 -25 8 0 13 6 10 13 -2 6 -15 45 -28
85 -31 98 -49 97 -83 -6z m58 6 c5 -24 3 -28 -14 -28 -22 0 -23 3 -14 50 7 34
16 27 28 -22z"/>
<path d="M2540 1380 c0 -5 11 -10 25 -10 24 0 25 -2 25 -75 0 -43 4 -75 10
-75 6 0 10 32 10 75 l0 75 30 0 c17 0 30 5 30 10 0 6 -28 10 -65 10 -37 0 -65
-4 -65 -10z"/>
<path d="M2710 1327 c0 -82 18 -109 68 -105 46 4 62 32 62 111 0 43 -3 57 -15
57 -11 0 -15 -16 -17 -66 -3 -70 -18 -94 -52 -81 -13 5 -16 21 -16 77 0 56 -3
70 -15 70 -12 0 -15 -14 -15 -63z"/>
<path d="M2960 1305 c0 -50 4 -85 10 -85 6 0 10 30 11 68 l1 67 21 -57 c12
-32 27 -58 33 -58 6 0 19 26 30 58 l19 57 3 -67 c4 -98 22 -84 22 18 0 74 -2
85 -16 82 -10 -2 -26 -26 -37 -57 l-21 -55 -14 35 c-8 19 -18 44 -23 57 -5 12
-15 22 -24 22 -12 0 -15 -15 -15 -85z"/>
<path d="M3170 1305 l0 -85 50 0 c28 0 50 5 50 10 0 6 -16 10 -35 10 -32 0
-35 2 -35 30 0 27 3 30 30 30 17 0 30 5 30 10 0 6 -13 10 -30 10 -25 0 -30 4
-30 25 0 22 4 25 35 25 19 0 35 5 35 10 0 6 -22 10 -50 10 l-50 0 0 -85z"/>
<path d="M3320 1306 c0 -70 3 -86 15 -86 12 0 15 14 15 63 l1 62 35 -62 c50
-89 64 -84 64 22 0 72 -2 85 -16 85 -15 0 -16 -9 -11 -67 l6 -68 -37 65 c-21
36 -46 66 -55 68 -15 3 -17 -7 -17 -82z"/>
<path d="M3490 1380 c0 -5 11 -10 25 -10 24 0 25 -2 25 -75 0 -60 3 -75 15
-75 12 0 15 15 15 75 0 73 1 75 25 75 14 0 25 5 25 10 0 6 -28 10 -65 10 -37
0 -65 -4 -65 -10z"/>
<path d="M3670 1305 l0 -85 50 0 c28 0 50 5 50 10 0 6 -18 10 -40 10 -38 0
-40 2 -40 30 0 28 3 30 35 30 19 0 35 5 35 10 0 6 -16 10 -35 10 -31 0 -35 3
-35 25 0 23 4 25 40 25 22 0 40 5 40 10 0 6 -22 10 -50 10 l-50 0 0 -85z"/>
</g>
</svg>
