<?xml version="1.0" standalone="no"?>
<!DOCTYPE svg PUBLIC "-//W3C//DTD SVG 20010904//EN"
 "http://www.w3.org/TR/2001/REC-SVG-20010904/DTD/svg10.dtd">
<svg version="1.0" xmlns="http://www.w3.org/2000/svg"
 width="500.000000pt" height="500.000000pt" viewBox="0 0 500.000000 500.000000"
 preserveAspectRatio="xMidYMid meet">

<g transform="translate(0.000000,500.000000) scale(0.100000,-0.100000)"
fill="#000000" stroke="none">
<path d="M2133 3750 c-27 -16 -70 -51 -95 -79 -79 -88 -109 -175 -107 -309 2
-89 1 -92 -75 -187 -31 -38 -56 -78 -56 -87 0 -10 18 -29 40 -43 44 -28 47
-35 26 -68 -17 -26 -16 -72 3 -106 9 -16 11 -41 7 -77 -5 -46 -3 -56 16 -78
20 -22 36 -27 112 -36 49 -5 99 -16 112 -24 41 -28 83 -80 106 -133 l23 -53
273 0 272 0 0 100 0 100 33 13 c52 22 94 64 121 122 20 42 32 55 54 60 59 12
125 119 106 170 -5 11 5 28 29 53 71 73 86 161 42 248 -21 42 -23 54 -14 86
11 43 5 78 -24 131 -21 38 -92 90 -137 100 -24 6 -25 4 -26 -46 0 -33 -9 -68
-23 -95 -23 -46 -21 -62 9 -62 20 0 60 71 60 108 0 29 13 34 39 15 29 -20 51
-71 51 -118 0 -39 -2 -40 -32 -24 -16 8 -24 8 -35 -4 -13 -13 -13 -16 2 -28
63 -50 94 -88 100 -123 16 -82 -34 -163 -114 -187 -34 -10 -41 -17 -39 -33 2
-16 10 -21 31 -21 22 1 27 -4 27 -23 0 -35 -25 -77 -54 -90 -28 -12 -30 -11
-40 33 -11 46 -54 105 -76 105 -32 0 -33 -19 -5 -62 35 -53 42 -106 21 -162
-31 -82 -102 -122 -196 -111 -45 5 -58 4 -63 -8 -9 -23 7 -37 54 -45 l44 -7 3
-73 3 -72 -86 0 -85 0 0 215 0 215 44 0 c53 0 90 26 106 75 8 25 8 39 0 55
-17 31 -44 21 -48 -17 -2 -20 -12 -39 -25 -48 -27 -19 -42 -19 -61 1 -13 13
-16 46 -16 202 0 103 4 193 9 200 4 8 21 12 37 10 22 -2 30 -10 36 -36 7 -27
13 -33 31 -30 18 2 22 9 20 37 -2 49 -42 86 -93 86 l-40 0 0 83 c0 49 6 96 14
117 15 35 15 35 -10 35 -53 0 -54 -16 -54 -635 l0 -565 -40 0 -40 0 0 610 c0
336 -3 610 -7 610 -8 0 -176 26 -224 34 -16 3 -43 -6 -76 -24z"/>
<path d="M2676 3678 c-8 -13 -16 -36 -18 -53 -2 -25 1 -31 20 -33 18 -3 22 1
22 23 0 14 11 37 24 50 19 19 21 25 9 29 -27 11 -42 6 -57 -16z"/>
<path d="M2829 3666 c7 -8 16 -27 20 -43 9 -35 35 -37 39 -2 4 31 -20 59 -50
59 -17 0 -18 -3 -9 -14z"/>
<path d="M2737 3524 c-4 -4 -7 -15 -7 -25 0 -18 19 -29 50 -29 28 0 60 -39 60
-73 0 -21 -11 -40 -36 -64 -34 -31 -41 -63 -14 -63 25 0 71 32 85 60 33 63 6
155 -53 178 -43 18 -77 24 -85 16z"/>
<path d="M2993 3323 c-4 -10 1 -22 13 -32 11 -9 23 -23 26 -32 9 -22 -17 -57
-45 -61 -33 -5 -30 -42 5 -46 85 -10 130 113 61 168 -31 24 -51 26 -60 3z"/>
<path d="M2644 3286 c-12 -31 7 -89 40 -122 36 -36 86 -50 141 -40 41 8 108
69 103 94 -6 29 -34 24 -71 -13 -25 -25 -44 -35 -65 -35 -42 0 -88 41 -99 87
-9 40 -38 57 -49 29z"/>
<path d="M2776 2971 c-4 -5 -2 -20 3 -34 21 -53 -36 -95 -90 -67 -17 10 -24 9
-37 -4 -37 -37 58 -81 119 -55 55 22 85 100 59 150 -11 20 -45 26 -54 10z"/>
<path d="M2242 2388 l3 -23 272 0 c149 0 275 3 278 7 4 4 5 14 2 23 -6 13 -43
15 -282 15 l-276 0 3 -22z"/>
<path d="M2330 2295 c0 -23 3 -25 53 -25 47 0 54 -3 69 -30 13 -23 24 -30 47
-30 31 0 61 22 61 46 0 11 17 14 75 14 73 0 75 1 75 25 l0 25 -190 0 -190 0 0
-25z"/>
<path d="M3320 2120 c-24 -24 -25 -43 -4 -64 21 -21 57 -20 77 2 48 53 -22
113 -73 62z"/>
<path d="M2963 2103 c-37 -5 -44 -27 -13 -43 19 -10 20 -21 20 -179 0 -194 -8
-181 106 -181 47 0 69 5 94 23 65 44 88 131 53 204 -21 45 -71 67 -130 59
l-43 -6 0 65 c0 72 5 69 -87 58z m169 -184 c33 -45 22 -171 -17 -185 -8 -4
-26 -3 -40 0 -25 6 -25 8 -25 112 l0 105 32 -3 c19 -2 38 -13 50 -29z"/>
<path d="M3524 2015 c-10 -21 -26 -38 -40 -41 -29 -7 -32 -34 -4 -34 19 0 20
-7 20 -103 0 -88 3 -106 18 -120 34 -31 158 -14 145 19 -3 9 -14 11 -33 8 -39
-8 -50 17 -50 115 l0 81 40 0 c33 0 40 3 40 20 0 17 -7 20 -40 20 -39 0 -40 1
-40 35 0 49 -33 49 -56 0z"/>
<path d="M1387 1978 c-45 -12 -56 -31 -33 -57 22 -25 23 -179 1 -187 -8 -4
-15 -12 -15 -20 0 -11 18 -14 75 -14 61 0 75 3 75 15 0 9 -7 18 -15 21 -12 5
-15 26 -15 99 0 86 2 93 21 98 12 3 32 2 45 -3 23 -9 24 -14 24 -99 0 -70 -3
-90 -15 -95 -8 -3 -15 -12 -15 -21 0 -12 14 -15 75 -15 61 0 75 3 75 15 0 9
-7 18 -15 21 -12 5 -15 24 -15 83 0 91 -14 147 -40 161 -29 15 -72 12 -113 -9
-36 -18 -37 -18 -37 0 0 21 -7 22 -63 7z"/>
<path d="M1791 1973 c-48 -25 -73 -63 -79 -121 -5 -62 19 -117 61 -138 36 -19
156 -16 180 4 25 21 11 43 -20 31 -64 -24 -133 9 -133 66 0 25 0 25 91 25 l92
0 -6 46 c-7 64 -40 95 -104 101 -33 3 -58 -1 -82 -14z m94 -29 c9 -9 15 -28
13 -43 -3 -23 -8 -26 -50 -29 -44 -3 -48 -1 -48 20 0 55 51 86 85 52z"/>
<path d="M2058 1978 c-27 -7 -38 -15 -38 -29 0 -10 4 -19 9 -19 5 0 10 -42 13
-94 5 -117 17 -136 87 -136 26 0 56 7 68 15 19 13 22 13 27 0 8 -21 96 -21 96
0 0 8 -4 15 -10 15 -6 0 -10 48 -10 124 0 69 -4 127 -9 130 -5 4 -32 1 -60 -6
-37 -8 -51 -16 -51 -29 0 -9 7 -20 15 -23 13 -5 15 -22 13 -93 -3 -86 -4 -88
-28 -91 -49 -5 -55 8 -58 133 -3 78 -8 115 -16 114 -6 -1 -28 -6 -48 -11z"/>
<path d="M2406 1976 c-47 -15 -56 -32 -27 -52 18 -13 21 -25 21 -98 0 -65 -3
-85 -15 -90 -8 -3 -15 -12 -15 -21 0 -12 15 -15 85 -15 70 0 85 3 85 15 0 9
-12 18 -30 22 l-31 6 3 86 3 86 43 3 c41 3 42 4 42 38 0 24 -4 34 -16 34 -20
0 -56 -19 -71 -39 -11 -14 -12 -12 -13 12 0 30 -6 31 -64 13z"/>
<path d="M2695 1976 c-53 -24 -78 -60 -83 -123 -8 -100 40 -153 140 -153 96 0
148 54 148 156 0 25 -8 59 -17 75 -30 51 -124 73 -188 45z m90 -30 c16 -11 20
-30 23 -90 5 -88 -11 -126 -53 -126 -34 0 -55 45 -55 115 0 94 36 137 85 101z"/>
<path d="M3330 1973 c-25 -9 -47 -17 -49 -19 -3 -3 5 -18 17 -34 18 -24 22
-43 22 -104 0 -66 -2 -75 -20 -81 -11 -3 -20 -13 -20 -21 0 -11 17 -14 80 -14
63 0 80 3 80 14 0 8 -9 18 -20 21 -19 6 -20 15 -20 131 0 137 3 132 -70 107z"/>
<path d="M1240 1305 l0 -85 50 0 c58 0 68 17 13 22 -33 3 -38 7 -41 31 -3 25
-1 27 32 27 20 0 36 5 36 10 0 6 -16 10 -35 10 -31 0 -35 3 -35 25 0 23 4 25
40 25 22 0 40 5 40 10 0 6 -22 10 -50 10 l-50 0 0 -85z"/>
<path d="M1401 1376 c-20 -24 -9 -49 34 -73 48 -27 54 -56 12 -61 -16 -2 -35
2 -43 9 -11 9 -14 8 -14 -5 0 -39 96 -31 106 9 8 31 1 41 -47 66 -48 24 -46
44 4 44 47 0 42 19 -5 23 -22 2 -39 -3 -47 -12z"/>
<path d="M1540 1380 c0 -5 11 -10 25 -10 24 0 25 -2 25 -75 0 -43 4 -75 10
-75 6 0 10 32 10 75 0 73 1 75 25 75 14 0 25 5 25 10 0 6 -27 10 -60 10 -33 0
-60 -4 -60 -10z"/>
<path d="M1710 1305 c0 -50 4 -85 10 -85 6 0 10 35 10 85 0 50 -4 85 -10 85
-6 0 -10 -35 -10 -85z"/>
<path d="M1790 1306 c0 -102 18 -116 22 -18 l3 67 20 -54 c11 -29 24 -54 29
-55 5 0 18 24 30 54 l21 55 3 -67 c4 -98 22 -84 22 18 0 74 -2 85 -17 82 -9
-2 -24 -25 -34 -57 -11 -30 -21 -56 -23 -58 -2 -2 -13 22 -23 54 -12 36 -26
59 -36 61 -15 3 -17 -8 -17 -82z"/>
<path d="M2000 1327 c0 -74 18 -107 58 -107 39 0 52 12 62 56 15 62 12 114 -5
114 -11 0 -15 -17 -17 -72 -3 -71 -4 -73 -30 -76 -34 -4 -48 25 -48 99 0 27
-4 49 -10 49 -6 0 -10 -28 -10 -63z"/>
<path d="M2190 1305 l0 -85 45 0 c25 0 45 5 45 10 0 6 -16 10 -35 10 l-35 0 0
75 c0 43 -4 75 -10 75 -6 0 -10 -35 -10 -85z"/>
<path d="M2341 1318 c-13 -40 -26 -79 -28 -85 -3 -7 0 -13 6 -13 6 0 13 11 17
25 5 20 12 25 40 25 28 0 35 -5 40 -25 3 -14 12 -25 19 -25 19 0 -37 164 -56
168 -10 2 -22 -20 -38 -70z m54 5 c6 -30 4 -33 -18 -33 -24 0 -25 1 -15 41 12
44 22 42 33 -8z"/>
<path d="M2540 1380 c0 -5 11 -10 25 -10 24 0 25 -2 25 -75 0 -43 4 -75 10
-75 6 0 10 32 10 75 0 73 1 75 25 75 14 0 25 5 25 10 0 6 -27 10 -60 10 -33 0
-60 -4 -60 -10z"/>
<path d="M2712 1319 c4 -76 19 -99 64 -99 41 0 54 25 54 101 0 92 -18 89 -22
-3 -3 -71 -4 -73 -30 -76 -34 -4 -48 25 -48 99 0 29 -4 49 -11 49 -8 0 -10
-23 -7 -71z"/>
<path d="M2960 1306 c0 -102 18 -116 22 -18 l3 67 20 -54 c11 -29 24 -54 29
-55 5 0 18 24 30 54 l21 55 3 -67 c4 -98 22 -84 22 18 0 74 -2 85 -17 82 -9
-2 -24 -25 -34 -57 -11 -30 -21 -56 -23 -58 -2 -2 -13 22 -23 54 -12 36 -26
59 -36 61 -15 3 -17 -8 -17 -82z"/>
<path d="M3170 1305 l0 -85 50 0 c58 0 68 17 13 22 -33 3 -38 7 -41 31 -3 25
-1 27 32 27 20 0 36 5 36 10 0 6 -16 10 -35 10 -31 0 -35 3 -35 25 0 23 4 25
40 25 22 0 40 5 40 10 0 6 -22 10 -50 10 l-50 0 0 -85z"/>
<path d="M3330 1305 c0 -57 4 -85 11 -85 8 0 10 20 7 65 -3 36 -3 65 1 65 3 0
21 -29 40 -65 47 -91 61 -86 61 20 0 101 -18 115 -22 18 l-3 -68 -38 68 c-21
37 -42 67 -47 67 -6 0 -10 -38 -10 -85z"/>
<path d="M3490 1380 c0 -5 14 -10 30 -10 l30 0 0 -75 c0 -43 4 -75 10 -75 6 0
10 32 10 75 0 73 1 75 25 75 14 0 25 5 25 10 0 6 -28 10 -65 10 -37 0 -65 -4
-65 -10z"/>
<path d="M3670 1305 l0 -85 50 0 c28 0 50 5 50 10 0 6 -18 10 -40 10 -38 0
-40 2 -40 30 0 27 3 30 30 30 17 0 30 5 30 10 0 6 -13 10 -30 10 -25 0 -30 4
-30 25 0 22 4 25 34 25 19 0 38 5 41 10 4 6 -13 10 -44 10 l-51 0 0 -85z"/>
</g>
</svg>
