<svg xmlns="http://www.w3.org/2000/svg" xmlns:xlink="http://www.w3.org/1999/xlink" viewBox="0,0,256,256" width="40px" height="40px" fill-rule="nonzero"><g fill="none" fill-rule="nonzero" stroke="none" stroke-width="1" stroke-linecap="butt" stroke-linejoin="miter" stroke-miterlimit="10" stroke-dasharray="" stroke-dashoffset="0" font-family="none" font-weight="none" font-size="none" text-anchor="none" style="mix-blend-mode: normal"><g transform="scale(6.4,6.4)"><path d="M4.221,29.298l-0.104,-0.181c-1.608,-2.786 -2.459,-5.969 -2.458,-9.205c0.004,-10.152 8.267,-18.412 18.419,-18.412c4.926,0.002 9.553,1.919 13.03,5.399c3.477,3.48 5.392,8.107 5.392,13.028c-0.005,10.153 -8.268,18.414 -18.42,18.414c-3.082,-0.002 -6.126,-0.776 -8.811,-2.24l-0.174,-0.096l-9.385,2.46z" fill="#ebebeb"></path><path d="M20.078,2v0c4.791,0.001 9.293,1.867 12.676,5.253c3.383,3.386 5.246,7.887 5.246,12.674c-0.005,9.878 -8.043,17.914 -17.927,17.914c-2.991,-0.001 -5.952,-0.755 -8.564,-2.18l-0.349,-0.19l-0.384,0.101l-8.354,2.19l2.226,-8.131l0.11,-0.403l-0.208,-0.361c-1.566,-2.711 -2.393,-5.808 -2.391,-8.955c0.004,-9.876 8.043,-17.912 17.919,-17.912M20.078,1c-10.427,0 -18.915,8.485 -18.92,18.912c-0.002,3.333 0.869,6.588 2.525,9.455l-2.683,9.802l10.03,-2.63c2.763,1.507 5.875,2.3 9.042,2.302h0.008c10.427,0 18.915,-8.485 18.92,-18.914c0,-5.054 -1.966,-9.807 -5.538,-13.382c-3.572,-3.574 -8.322,-5.543 -13.384,-5.545z" fill="#4c184e"></path><path d="M19.995,35c-2.504,-0.001 -4.982,-0.632 -7.166,-1.823l-1.433,-0.782l-1.579,0.414l-3.241,0.85l0.83,-3.03l0.453,-1.656l-0.859,-1.488c-1.309,-2.267 -2.001,-4.858 -2,-7.492c0.004,-8.267 6.732,-14.992 14.998,-14.993c4.011,0.001 7.779,1.563 10.61,4.397c2.833,2.834 4.392,6.602 4.392,10.608c-0.004,8.268 -6.732,14.995 -15.005,14.995z" fill-opacity="0.74118" fill="#4c184e"></path><path d="M28.085,24.186c-0.443,-0.221 -2.621,-1.293 -3.026,-1.44c-0.406,-0.148 -0.702,-0.221 -0.997,0.221c-0.295,0.443 -1.144,1.44 -1.402,1.735c-0.258,0.295 -0.516,0.332 -0.96,0.111c-0.444,-0.221 -1.87,-0.69 -3.561,-2.198c-1.317,-1.173 -2.206,-2.624 -2.464,-3.067c-0.258,-0.443 -0.028,-0.682 0.194,-0.903c0.199,-0.199 0.443,-0.518 0.664,-0.776c0.221,-0.258 0.295,-0.443 0.443,-0.739c0.148,-0.295 0.074,-0.555 -0.037,-0.776c-0.111,-0.221 -0.997,-2.401 -1.366,-3.287c-0.359,-0.863 -0.725,-0.746 -0.997,-0.759c-0.258,-0.013 -0.553,-0.015 -0.848,-0.015c-0.295,0 -0.776,0.111 -1.181,0.555c-0.405,0.444 -1.547,1.515 -1.547,3.694c0,2.179 1.587,4.285 1.808,4.58c0.221,0.295 3.122,4.767 7.566,6.685c1.056,0.455 1.882,0.728 2.524,0.933c1.061,0.337 2.026,0.289 2.79,0.175c0.851,-0.128 2.621,-1.071 2.989,-2.105c0.369,-1.034 0.369,-1.921 0.258,-2.105c-0.111,-0.186 -0.406,-0.298 -0.85,-0.519z" fill="#ebebeb"></path></g></g></svg>